<svg width="140" height="140" viewBox="0 0 276 276" fill="none" xmlns="http://www.w3.org/2000/svg">
  <path
    d="M132.697 8.83883C135.626 5.9099 140.374 5.9099 143.303 8.83884L267.161 132.697C270.09 135.626 270.09 140.374 267.161 143.303L143.303 267.161C140.374 270.09 135.626 270.09 132.697 267.161L8.83883 143.303C5.9099 140.374 5.9099 135.626 8.83884 132.697L132.697 8.83883Z"
    stroke="#0AB26E" stroke-width="5" />
  <path
    d="M132.697 51.8388C135.626 48.9099 140.374 48.9099 143.303 51.8388L224.161 132.697C227.09 135.626 227.09 140.374 224.161 143.303L143.303 224.161C140.374 227.09 135.626 227.09 132.697 224.161L51.8388 143.303C48.9099 140.374 48.9099 135.626 51.8388 132.697L132.697 51.8388Z"
    stroke="#0AB26E" stroke-opacity="0.65" stroke-width="5" />
  <path
    d="M132.697 85.8388C135.626 82.9099 140.374 82.9099 143.303 85.8388L190.161 132.697C193.09 135.626 193.09 140.374 190.161 143.303L143.303 190.161C140.374 193.09 135.626 193.09 132.697 190.161L85.8388 143.303C82.9099 140.374 82.9099 135.626 85.8388 132.697L132.697 85.8388Z"
    stroke="#0AB26E" stroke-opacity="0.4" stroke-width="5" />
  <path
    d="M135.525 113.01C136.892 111.644 139.108 111.644 140.475 113.01L162.99 135.525C164.356 136.892 164.356 139.108 162.99 140.475L140.475 162.99C139.108 164.356 136.892 164.356 135.525 162.99L113.01 140.475L111.243 142.243L113.01 140.475C111.644 139.108 111.644 136.892 113.01 135.525L135.525 113.01Z"
    stroke="#0AB26E" stroke-opacity="0.2" stroke-width="5" />
  <circle cx="137.5" cy="137.5" r="7.5" fill="#0AB26E" />
</svg>