<svg width="100" height="94" viewBox="0 0 200 188" fill="none" xmlns="http://www.w3.org/2000/svg">
  <path fill-rule="evenodd" clip-rule="evenodd"
    d="M22.572 0C17.8776 0 14.072 3.80558 14.072 8.5C14.072 13.1944 17.8776 17 22.572 17H24.8883C23.1734 22.8792 22.1854 27.9668 21.9931 33.0348L7.99036 43.8206C-2.87173 52.1874 -2.61761 68.6526 8.49748 76.6802L53.9403 109.5C60.8743 120.816 68.7241 132.456 78.7395 146.487C79.8626 148.061 81.6843 149 83.6176 149H116.16C118.131 149 119.983 148.024 121.099 146.399C130.679 132.454 138.208 120.887 144.895 109.723L190.647 76.6802C201.762 68.6526 202.016 52.1874 191.154 43.8206L177.712 33.4667C177.581 28.2269 176.443 23.0211 174.331 17H177.572C182.266 17 186.072 13.1944 186.072 8.5C186.072 3.80558 182.266 0 177.572 0H22.572ZM45.2023 94.5545C38.991 83.405 33.127 71.6955 26.4515 57.507C24.3851 51.4673 23.0565 46.3393 22.4143 41.5462L12.262 49.3662C5.10888 54.876 5.27621 65.719 12.5959 71.0054L45.2023 94.5545ZM186.548 71.0054L153.39 94.9527C159.638 83.6322 165.57 71.8307 172.437 57.507C174.749 51.5775 176.293 46.5255 177.088 41.8218L186.882 49.3662C194.035 54.876 193.868 65.719 186.548 71.0054ZM55.0957 175.017C51.7283 175.261 49.072 178.07 49.072 181.5C49.072 185.09 51.9822 188 55.572 188H143.572C147.162 188 150.072 185.09 150.072 181.5C150.072 178.42 147.93 175.841 145.055 175.17C144.62 164.509 135.84 156 125.072 156H75.072C64.3559 156 55.6082 164.428 55.0957 175.017Z"
    fill="url(#paint0_linear_0_1)" />
  <path fill-rule="evenodd" clip-rule="evenodd"
    d="M131.427 108.372C123.556 105.286 117.941 98.5655 116.025 90.712C124.322 93.2487 130.109 100.266 131.427 108.372Z"
    fill="white" fill-opacity="0.45" />
  <path fill-rule="evenodd" clip-rule="evenodd"
    d="M68.0193 108.372C75.8903 105.286 81.5055 98.5655 83.4215 90.712C75.1236 93.2487 69.3368 100.266 68.0193 108.372Z"
    fill="white" fill-opacity="0.45" />
  <path fill-rule="evenodd" clip-rule="evenodd"
    d="M150.443 77.0941C142.083 78.3564 133.861 75.3442 128.275 69.5008C136.729 67.5487 145.249 70.7326 150.443 77.0941Z"
    fill="white" fill-opacity="0.45" />
  <path fill-rule="evenodd" clip-rule="evenodd"
    d="M49.0027 77.0941C57.3626 78.3564 65.5855 75.3442 71.1716 69.5008C62.7171 67.5487 54.1968 70.7326 49.0027 77.0941Z"
    fill="white" fill-opacity="0.45" />
  <path fill-rule="evenodd" clip-rule="evenodd"
    d="M147.78 43.5559C141.172 48.829 132.544 50.3318 124.785 48.0644C131.131 42.1466 140.102 40.6438 147.78 43.5559Z"
    fill="white" fill-opacity="0.45" />
  <path fill-rule="evenodd" clip-rule="evenodd"
    d="M51.6656 43.5559C58.2744 48.829 66.9018 50.3318 74.6611 48.0644C68.3154 42.1466 59.3446 40.6438 51.6656 43.5559Z"
    fill="white" fill-opacity="0.45" />
  <path fill-rule="evenodd" clip-rule="evenodd"
    d="M139.758 87.6912C132.635 92.2446 123.897 92.8373 116.417 89.7712C123.347 84.5491 132.426 83.9923 139.758 87.6912Z"
    fill="white" fill-opacity="0.45" />
  <path fill-rule="evenodd" clip-rule="evenodd"
    d="M59.6878 87.6912C66.8116 92.2446 75.5488 92.8373 83.0286 89.7712C76.0991 84.5491 67.0203 83.9923 59.6878 87.6912Z"
    fill="white" fill-opacity="0.45" />
  <path fill-rule="evenodd" clip-rule="evenodd"
    d="M147.318 55.0178C143.425 62.5231 136.155 67.405 128.144 68.4896C131.534 60.5024 139.118 55.4807 147.318 55.0178Z"
    fill="white" fill-opacity="0.45" />
  <path fill-rule="evenodd" clip-rule="evenodd"
    d="M52.1281 55.0178C56.0207 62.5231 63.291 67.405 71.3018 68.4896C67.9117 60.5024 60.3277 55.4807 52.1281 55.0178Z"
    fill="white" fill-opacity="0.45" />
  <path fill-rule="evenodd" clip-rule="evenodd"
    d="M134.036 26C134.417 34.446 130.562 42.3091 124.167 47.2537C123.109 38.6415 127.166 30.5007 134.036 26Z"
    fill="white" fill-opacity="0.45" />
  <path fill-rule="evenodd" clip-rule="evenodd"
    d="M65.4104 26C65.0289 34.446 68.8842 42.3091 75.2794 47.2537C76.3371 38.6415 72.28 30.5007 65.4104 26Z"
    fill="white" fill-opacity="0.45" />
  <g filter="url(#filter0_d_0_1)">
    <path fill-rule="evenodd" clip-rule="evenodd"
      d="M106 50H108.74C110.232 50 111.199 48.4242 110.522 47.0936L102.415 31.1463C101.711 29.761 99.7652 29.673 98.9387 30.989L88.9239 46.9364C88.0875 48.2683 89.0449 50 90.6177 50H93V64C93 65.1046 93.8954 66 95 66H104C105.105 66 106 65.1046 106 64V50ZM96 67C94.8954 67 94 67.8954 94 69V84C94 85.1046 94.8954 86 96 86H103C104.105 86 105 85.1046 105 84V69C105 67.8954 104.105 67 103 67H96ZM95.5 89C95.5 87.8954 96.3954 87 97.5 87H101.5C102.605 87 103.5 87.8954 103.5 89V100C103.5 101.105 102.605 102 101.5 102H97.5C96.3954 102 95.5 101.105 95.5 100V89Z"
      fill="white" />
  </g>
  <defs>
    <filter id="filter0_d_0_1" x="82.6144" y="27.0526" width="34.1278" height="83.9474" filterUnits="userSpaceOnUse"
      color-interpolation-filters="sRGB">
      <feFlood flood-opacity="0" result="BackgroundImageFix" />
      <feColorMatrix in="SourceAlpha" type="matrix" values="0 0 0 0 0 0 0 0 0 0 0 0 0 0 0 0 0 0 127 0"
        result="hardAlpha" />
      <feOffset dy="3" />
      <feGaussianBlur stdDeviation="3" />
      <feComposite in2="hardAlpha" operator="out" />
      <feColorMatrix type="matrix" values="0 0 0 0 0 0 0 0 0 0 0 0 0 0 0 0 0 0 0.15 0" />
      <feBlend mode="normal" in2="BackgroundImageFix" result="effect1_dropShadow_0_1" />
      <feBlend mode="normal" in="SourceGraphic" in2="effect1_dropShadow_0_1" result="shape" />
    </filter>
    <linearGradient id="paint0_linear_0_1" x1="16.572" y1="182" x2="212.531" y2="17.3494"
      gradientUnits="userSpaceOnUse">
      <stop stop-color="#09A95D" />
      <stop offset="1" stop-color="#0DD9B8" />
      <stop offset="1" stop-color="#058A8A" />
    </linearGradient>
  </defs>
</svg>